<?xml version="1.0" encoding="UTF-8" standalone="no"?>
<svg
   xmlns:dc="http://purl.org/dc/elements/1.1/"
   xmlns:cc="http://creativecommons.org/ns#"
   xmlns:rdf="http://www.w3.org/1999/02/22-rdf-syntax-ns#"
   xmlns:svg="http://www.w3.org/2000/svg"
   xmlns="http://www.w3.org/2000/svg"
   id="svg3576"
   preserveAspectRatio="xMidYMid meet"
   viewBox="0 0 2250.000000 1328.000000"
   height="1328.000000pt"
   width="2250.000000pt"
   version="1.0">
  <metadata
     id="metadata3598">
    <rdf:RDF>
      <cc:Work
         rdf:about="">
        <dc:format>image/svg+xml</dc:format>
        <dc:type
           rdf:resource="http://purl.org/dc/dcmitype/StillImage" />
        <dc:title></dc:title>
      </cc:Work>
    </rdf:RDF>
  </metadata>
  <defs
     id="defs3596" />
  <g
     style="display:inline"
     id="layer1">
    <path
       transform="scale(0.8,0.8)"
       id="path3618"
       d="m 211.64555,1647.4204 c -23.43317,-10.2075 -80.91213,-86.042 -78.35169,-103.3728 0.92239,-6.2433 6.62222,-11.4604 15.97696,-14.6238 23.44033,-7.9264 26.40084,-13.09 19.91558,-34.7359 -3.09277,-10.3227 -26.677,-63.1596 -52.40941,-117.4152 -58.46243,-123.2654 -56.21487,-116.2349 -38.303977,-119.8171 7.861768,-1.5723 21.183614,-2.8588 29.604107,-2.8588 21.15114,0 20.26535,-10.858 -4.40446,-53.9898 C 79.444582,1158.2476 76.504336,1149.772 59.455324,1073.1452 51.961295,1039.4632 37.502943,981.29777 27.325655,943.88863 -7.5963176,815.5243 2.7378523,787.4483 98.164855,751.4318 127.86519,740.22216 139.87658,733.07766 148.89074,721.25949 l 11.81085,-15.48483 55.93604,1.29934 c 63.65302,1.4786 63.72671,1.51356 92.72834,43.99455 9.36815,13.72228 30.84879,40.25957 47.73475,58.97177 30.72044,34.04288 48.73769,66.06765 54.52467,96.9149 2.6424,14.08523 1.17605,18.59722 -10.28684,31.65272 l -13.36853,15.22592 -3.03896,80.55354 c -1.67143,44.3044 -4.09567,82.2633 -5.38721,84.3531 -1.29153,2.0897 -32.40753,24.1159 -69.14665,48.9469 -80.26582,54.2498 -92.00081,65.656 -95.00937,92.3478 -2.74549,24.358 21.72017,106.2134 47.97017,160.4951 26.45738,54.7105 26.34804,53.6512 7.77715,75.3471 -19.71449,23.032 -20.54442,36.4081 -4.84656,78.1135 10.35261,27.5043 10.79597,31.4755 5.04952,45.2286 -6.42982,15.3887 -28.78112,34.7132 -39.78031,34.3933 -3.3573,-0.098 -12.31781,-2.8842 -19.91225,-6.1924 z m 36.2863,-540.8028 c 10.57351,-4.0574 20.61654,-25.8658 20.61654,-44.7686 0,-8.9557 4.30778,-24.727 9.57286,-35.0474 9.77821,-19.1668 9.80665,-21.3772 1.04754,-81.39851 -1.84565,-12.64723 -0.0181,-19.85564 7.67055,-30.25511 7.08848,-9.58768 9.2372,-17.0638 7.21735,-25.11155 -4.40754,-17.56103 -87.32568,-78.82 -100.06909,-73.92989 -10.54836,4.04778 -46.9129,61.69804 -56.97371,90.32285 -10.76732,30.63496 -11.25954,53.46278 -1.68744,78.25811 3.85267,9.97984 10.87645,31.4138 15.60842,47.631 12.81031,43.9031 22.65451,63.3508 35.64276,70.4139 12.03742,6.546 48.41686,8.8498 61.35422,3.8852 z"
       style="fill:#ffffff" />
    <path
       transform="scale(0.8,0.8)"
       id="path3622"
       d="m 1090.3752,787.3415 c -38.8808,-9.06977 -109.44574,-55.52973 -133.02418,-87.58316 -18.86777,-25.64954 -24.61295,-40.18101 -35.36725,-89.45546 -5.91313,-27.09295 -14.00538,-49.52032 -22.82992,-63.27218 -15.7959,-24.61577 -17.20041,-40.79426 -5.04528,-58.11661 7.2693,-10.35953 9.01345,-23.4509 11.09847,-83.30357 2.9373,-84.31858 5.89652,-93.30762 43.66555,-132.64014 20.50198,-21.35069 27.36415,-31.77505 27.44531,-41.69235 0.37418,-45.72125 16.60784,-66.00288 66.729,-83.36831 39.6937,-13.75263 53.8936,-20.97693 76.0559,-38.69416 23.638,-18.896887 30.7217,-21.088856 48.6373,-15.050237 16.389,5.524057 108.6045,63.949477 117.1099,74.197897 2.9412,3.54396 7.0486,21.61031 9.1274,40.14746 4.0775,36.35872 18.1597,69.10261 47.0186,109.32764 8.9441,12.46682 16.2621,24.84125 16.2621,27.49872 0,2.65748 -6.124,9.35945 -13.6089,14.89326 -15.6526,11.57248 -16.5376,19.23583 -6.9915,60.54164 3.6396,15.74831 9.5755,45.73733 13.1908,66.64226 7.8795,45.56138 6.1566,53.26102 -32.6045,145.7108 -23.3039,55.58253 -28.4037,64.00506 -55.2049,91.17172 -36.0454,36.53706 -47.8864,42.88863 -101.165,54.26551 -22.9742,4.90582 -44.8333,9.68158 -48.5757,10.61284 -3.7425,0.93125 -13.6079,0.10614 -21.9232,-1.83357 z m 81.4344,-113.23443 c 17.6982,-4.90445 35.0237,-11.2784 38.501,-14.16434 4.8018,-3.98513 6.3225,-19.18134 6.3225,-63.18222 l 0,-57.93505 21.5473,-10.68794 c 27.6132,-13.69667 28.6546,-21.65223 8.6186,-65.83641 l -15.8108,-34.86648 9.7621,-23.03687 c 15.1203,-35.68149 12.9049,-56.99014 -11.1657,-107.39532 -11.4336,-23.94251 -28.5821,-52.15864 -38.1079,-62.7025 -18.2016,-20.14705 -45.4623,-36.65881 -60.5232,-36.65881 -11.7134,0 -27.7277,20.73011 -27.7277,35.89272 0,19.70664 -10.8574,30.09216 -37.7515,36.11079 -13.6024,3.0441 -27.7511,9.01226 -31.4415,13.26258 -3.6904,4.25032 -7.9777,20.53737 -9.5274,36.19345 -1.5496,15.65607 -5.9054,34.437 -9.6796,41.73541 -9.7915,18.93463 -8.4394,39.6278 4.3897,67.1847 l 11.1632,23.97845 -10.0734,3.82595 c -5.5404,2.10427 -14.1406,4.60758 -19.1115,5.56291 -4.97091,0.95533 -11.5493,6.97655 -14.61863,13.38049 -4.78115,9.97554 -3.28113,20.3651 10.47103,72.52518 22.8656,86.72602 27.793,96.34518 56.9113,111.10051 53.6572,27.19021 69.0355,29.24052 117.8521,15.7128 z"
       style="fill:#ffffff" />
    <path
       transform="scale(0.8,0.8)"
       id="path3624"
       d="m 1545.8516,768.07964 c -16.9618,-25.93175 -47.9685,-133.54789 -47.9685,-166.48617 0,-19.76484 5.4599,-22.73706 41.9607,-22.84203 11.851,-0.0363 21.5473,-1.07787 21.5473,-2.31959 0,-1.24167 -7.655,-12.91686 -17.0111,-25.94477 l -17.011,-23.68719 -0.7052,-118.08241 c -0.3879,-64.94532 -1.4085,-124.06901 -2.2682,-131.38597 -1.5018,-12.78297 -0.6038,-13.49305 22.948,-18.14517 34.336,-6.78232 36.6994,-12.91544 19.3024,-50.0919 -9.8449,-21.03806 -14.3275,-37.43833 -14.3275,-52.41959 0,-15.58251 -4.5295,-31.25401 -15.877,-54.93227 -16.5381,-34.509301 -20.0774,-58.274688 -9.9325,-66.694211 13.9757,-11.598788 210.1697,-32.7151167 244.2147,-26.2847837 23.2701,4.3951947 143.5393,113.7847547 159.8159,145.3587747 6.3036,12.22805 6.0197,14.71846 -3.9122,34.31806 -7.2053,14.21912 -9.3615,23.26258 -6.5905,27.64175 5.5522,8.77429 5.3026,45.84711 -0.5992,88.96761 -4.4737,32.68681 -6.3513,37.02112 -23.8155,54.97433 -25.9722,26.69951 -56.99,40.90873 -97.353,44.59726 -18.1672,1.66019 -33.9286,4.47049 -35.0253,6.2451 -1.0968,1.77461 9.3707,16.27514 23.2612,32.22339 17.2077,19.75705 36.084,50.55274 59.2387,96.64485 18.6909,37.20643 49.2689,90.06034 67.9512,117.45313 l 33.9677,49.80511 -24.159,24.48994 c -40.3212,40.87356 -44.1792,39.59333 -99.5542,-33.0369 -27.4666,-36.02549 -31.8268,-44.40071 -34.2436,-65.77621 -3.7499,-33.16749 -10.8706,-45.55991 -37.3461,-64.99474 -29.6326,-21.75233 -60.0373,-55.52492 -93.4384,-103.78873 -14.9698,-21.63091 -28.7488,-39.35181 -30.62,-39.37979 -1.8712,-0.028 -3.4022,19.14013 -3.4022,42.59579 l 0,42.64671 -15.877,9.36766 c -19.3993,11.44588 -19.7526,18.01098 -2.2682,42.14758 14.528,20.05522 17.2363,39.12442 8.7145,61.35877 -2.6919,7.02359 -6.8029,31.06638 -9.1355,53.42852 -4.2247,40.50186 -13.7379,67.49519 -31.9444,90.64098 -11.2423,14.29231 -19.823,14.70938 -28.537,1.38711 z m 178.4857,-449.27917 c 7.7121,-20.28447 16.4138,-23.6082 45.8756,-17.52294 22.0902,4.56265 29.3574,4.39864 42.1622,-0.95154 22.884,-9.56155 30.2826,-23.0335 30.1664,-54.92909 -0.1383,-37.95512 -10.8713,-58.40922 -49.3373,-94.02279 -53.887,-49.89117 -82.5448,-58.289075 -126.1754,-36.9746 -22.5442,11.01335 -23.4067,21.42216 -8.2553,99.62581 13.4807,69.58036 16.8236,79.92574 32.444,100.40517 13.2088,17.31763 27.4811,19.20078 33.1198,4.36998 z"
       style="fill:#ffffff" />
    <path
       transform="scale(0.8,0.8)"
       id="path3626"
       d="m 2230.2813,762.72133 c -12.2524,-18.69946 -24.6698,-55.99048 -35.8363,-107.62104 -12.6705,-58.58451 -10.9799,-62.8019 25.1746,-62.8019 28.6525,0 30.718,-5.0894 18.5253,-45.64602 -8.8302,-29.37175 -9.0058,-33.09065 -2.7164,-57.52011 14.1051,-54.7875 53.3822,-172.7412 68.7131,-206.3538 l 15.9977,-35.07436 -10.1949,-23.69858 -10.1948,-23.69859 10.7318,-19.64553 c 12.6621,-23.17905 10.5223,-25.77902 -24.9988,-30.37423 -12.779,-1.65318 -38.88,-7.25713 -58.0021,-12.45322 l -34.7674,-9.44743 -21.3735,11.94585 c -28.7735,16.08185 -39.0598,15.26309 -56.4028,-4.48953 -26.4825,-30.1619 -26.6976,-33.79427 -4.194,-70.834761 23.9401,-39.405016 31.7414,-41.792971 78.7409,-24.102401 25.0297,9.42116 38.7211,11.57416 73.6026,11.57416 23.5691,0 47.01,2.22484 52.091,4.944088 5.081,2.719248 22.6263,6.840081 38.9895,9.157408 20.752,2.938838 39.8731,9.800608 63.2128,22.684376 l 33.4613,18.47105 42.0758,-3.15455 c 35.9874,-2.69809 47.286,-1.69565 78.0826,6.92767 19.8037,5.54521 44.9078,14.25533 55.7867,19.3558 l 19.7801,9.2736 -2.0237,24.40276 c -4.1609,50.17548 -26.0251,59.49516 -99.2473,42.30462 -25.6518,-6.02232 -51.7716,-9.0418 -71.3305,-8.24588 -28.1101,1.14389 -32.2036,0.1242 -45.9566,-11.44821 -20.5739,-17.31181 -24.5063,-11.54649 -19.0383,27.91176 5.2749,38.06376 3.3838,47.79348 -13.2547,68.19741 -11.1087,13.62264 -12.2121,17.93404 -10.0216,39.15771 1.6881,16.35686 0.1081,30.0745 -5.0293,43.66366 -4.8545,12.84081 -7.054,30.15566 -6.2498,49.19905 l 1.2409,29.38499 -15.877,5.1525 c -8.8521,2.87275 -18.2088,9.94226 -21.1471,15.97792 -2.8985,5.95398 -7.1532,34.30072 -9.4548,62.99275 -3.4092,42.49856 -6.7712,58.05268 -18.1392,83.92137 -7.6749,17.46472 -15.3166,44.00202 -16.9816,58.97178 -4.2848,38.52494 -13.8167,65.6809 -29.9053,85.19915 -16.2364,19.69771 -23.9202,21.0223 -33.8689,5.83871 z"
       style="fill:#ffffff" />
    <path
       transform="scale(0.8,0.8)"
       id="path3628"
       d="m 1906.5462,1586.8408 c -16.0578,-16.0577 -22.938,-44.9411 -39.4592,-165.6525 l -12.2781,-89.7088 10.9272,-23.4987 c 10.4857,-22.5494 10.8842,-26.9889 9.8629,-109.888 -0.5854,-47.514 -3.1605,-117.0913 -5.7226,-154.6162 l -4.6584,-68.22702 18.1975,-48.29019 c 10.0086,-26.5596 18.1974,-50.24464 18.1974,-52.63341 0,-14.45351 23.2417,-9.25448 102.0665,22.8317 36.725,14.94913 58.8817,21.09647 83.9214,23.28389 18.7122,1.63465 38.6114,4.23748 44.2204,5.78407 11.5429,3.18273 56.1697,64.26809 70.3167,96.24976 7.8527,17.7525 8.7443,26.2925 6.2134,59.5137 -1.6252,21.3329 -5.6034,74.0349 -8.8403,117.1154 l -5.8853,78.3284 -17.4177,17.8374 -17.4178,17.8374 2.8798,40.5713 c 3.2331,45.5479 3.7257,44.6114 -30.0288,57.0858 -27.5333,10.1752 -33.5898,19.7204 -42.2967,66.6609 -8.539,46.035 -14.9666,57.0865 -35.435,60.9264 -18.0208,3.3808 -28.4046,13.4499 -41.1575,39.9103 l -9.0726,18.8243 -42.137,1.3066 c -41.0027,1.2715 -42.4833,0.9605 -54.9962,-11.5525 z m 80.1934,-158.7309 c 31.7649,-19.3039 45.2277,-34.1595 50.7376,-55.9868 8.6015,-34.0744 30.0864,-95.2508 48.4439,-137.9396 17.0272,-39.5952 17.5544,-42.4001 17.478,-92.994 -0.068,-45.1148 -1.4439,-54.7415 -10.1774,-71.2085 -12.1032,-22.8207 -64.1538,-60.3439 -83.7064,-60.3439 -3.2754,0 -14.6041,11.0738 -25.1749,24.6085 -22.2805,28.5279 -24.3498,44.3239 -10.1469,77.458 10.8004,25.1963 11.6375,59.2657 2.2191,90.3127 -8.5086,28.0479 -8.4411,87.3551 0.1398,122.893 10.2537,42.4653 8.7999,70.2585 -4.627,88.4576 -10.7381,14.5548 -14.7053,27.2178 -8.527,27.2178 1.5476,0 12.0511,-5.6137 23.3413,-12.4748 z"
       style="fill:#ffffff" />
    <path
       transform="scale(0.8,0.8)"
       id="path3630"
       d="m 1529.6371,1567.2445 c -22.9284,-10.3667 -47.45,-32.0492 -57.1182,-50.505 -3.5448,-6.7665 -10.4218,-28.953 -15.2823,-49.3032 -7.9737,-33.3849 -8.1991,-38.8317 -2.3066,-55.7415 9.1962,-26.3903 8.9941,-27.1541 -14.0475,-53.0977 -25.2172,-28.3932 -26.7499,-32.0449 -45.1749,-107.6281 -8.0889,-33.1823 -16.1567,-61.7609 -17.9284,-63.5081 -5.4563,-5.3807 -33.0321,31.2346 -52.2698,69.404 -15.4405,30.6353 -19.6299,45.3307 -26.8848,94.3052 -4.7267,31.9082 -11.0487,60.9725 -14.0487,64.5874 -3.0001,3.6148 -12.2645,10.7811 -20.5875,15.925 -20.4623,12.6464 -22.2199,21.4859 -11.3009,56.8375 7.8588,25.4438 8.4313,32.0381 3.6454,41.9884 -15.549,32.3272 -67.9773,43.9312 -90.7299,20.0813 -16.136,-16.9142 -21.5506,-33.1098 -21.5506,-64.4596 0,-39.3834 14.4826,-80.2482 41.2539,-116.4044 l 23.1072,-31.2076 -2.8095,-65.7762 c -1.5452,-36.1769 -3.2681,-69.6768 -3.8287,-74.4443 -0.8037,-6.8353 3.6126,-9.8725 20.8867,-14.3644 41.2736,-10.7326 46.379,-23.5156 29.4308,-73.6904 l -9.9032,-29.3181 10.4057,-8.4261 c 5.7232,-4.6343 15.2829,-8.426 21.2439,-8.426 19.7962,0 28.9834,-14.8159 28.9834,-46.7404 0,-36.29202 14.3975,-66.7493 45.1516,-95.51617 40.1703,-37.57456 56.9828,-32.11217 84.8576,27.57017 17.4257,37.30991 25.0994,72.0049 35.9006,162.3174 6.9458,58.0761 28.248,148.5815 36.9153,156.8399 5.021,4.7841 78.3595,-11.9372 86.0394,-19.6171 5.4087,-5.4087 4.6647,-9.8906 -5.1369,-30.9471 -17.1359,-36.8123 -15.2742,-56.6223 15.5293,-165.2474 20.1646,-71.10812 32.8083,-106.52713 49.8665,-139.69062 14.2179,-27.64174 22.8524,-50.2404 22.8524,-59.81054 0,-20.06217 7.2341,-38.65413 15.0402,-38.65413 13.5983,0 62.2776,28.60862 77.6704,45.64664 18.4255,20.39482 17.3966,28.04828 -6.0116,44.7164 -17.7515,12.64018 -27.6795,54.33258 -31.5537,132.50985 l -2.978,60.0922 -15.877,4.0877 c -24.8688,6.4027 -27.2099,10.3293 -27.2983,45.7859 -0.1565,62.8553 -7.6636,107.3521 -26.5004,157.0807 -20.3984,53.851 -32.3788,106.1717 -32.4161,141.5678 -0.036,36.1009 -7.2511,56.8671 -22.4895,64.7472 -15.346,7.9357 -24.9535,32.3411 -20.5765,52.2692 2.9134,13.2646 2.5656,13.5908 -14.386,13.4936 -9.5543,-0.055 -26.5575,-4.253 -37.7848,-9.3293 z"
       style="fill:#ffffff" />
    <path
       transform="scale(0.8,0.8)"
       id="path3632"
       d="m 601.96573,1545.0736 c -14.18854,-5.9536 -41.93165,-36.9841 -49.66676,-55.5519 l -7.01498,-16.8392 17.81144,-4.7961 c 19.85973,-5.3477 24.38923,-14.2621 29.60568,-58.266 1.57521,-13.288 6.85582,-34.2872 11.73468,-46.6649 4.87887,-12.3778 8.87066,-33.3492 8.87066,-46.6031 0,-18.8176 3.47899,-30.6538 15.87702,-54.0166 l 15.87701,-29.9185 -0.23294,-64.8931 c -0.1281,-35.6913 -1.74508,-78.4791 -3.59326,-95.0841 l -3.36031,-30.191 16.96796,-2.7133 c 9.33238,-1.4923 22.687,-7.6699 29.67693,-13.728 l 12.70896,-11.0147 -12.58222,-35.9492 c -7.46271,-21.32205 -11.30881,-39.44417 -9.45256,-44.53871 1.72131,-4.7242 10.99659,-18.60386 20.61171,-30.84367 9.61512,-12.23982 18.66648,-27.5498 20.11412,-34.02218 10.94301,-48.92611 19.88574,-65.3234 47.93489,-87.89289 25.71474,-20.69113 33.64566,-16.18345 68.9423,39.18462 36.58413,57.38768 37.6455,66.37252 9.40847,79.6455 -11.32884,5.32518 -21.6829,12.50966 -23.00904,15.9655 -1.32613,3.45584 7.9975,21.26799 20.71919,39.58254 14.80889,21.31937 34.60296,61.04299 55.01976,110.41609 53.40856,129.1558 63.38482,156.1801 75.03043,203.2472 6.16289,24.9079 14.17181,52.3872 17.7976,61.0649 11.39866,27.2808 8.62172,46.9562 -9.63813,68.2887 -27.4397,32.0572 -30.42399,30.6299 -121.60094,-58.1552 -49.98899,-48.6777 -82.60455,-77.1169 -88.44145,-77.1169 -22.89547,0 -52.82379,53.2168 -57.40061,102.0665 -7.15941,76.4145 -24.64015,118.2736 -68.76104,164.6543 -18.47688,19.4233 -23.90483,21.4181 -39.95457,14.6834 z m 201.9625,-407.5647 c -4.41207,-38.6847 -6.69148,-46.2186 -13.98356,-46.2186 -4.87503,0 -45.0858,53.2122 -45.0858,59.6635 0,6.059 55.71703,31.5953 59.87183,27.4405 1.90596,-1.906 1.54485,-20.3044 -0.80247,-40.8854 z"
       style="fill:#ffffff" />
    <path
       transform="scale(0.8,0.8)"
       id="path3634"
       d="m 2370.6353,1620.0831 c -18.4538,-8.0329 -54.5485,-52.6553 -61.5821,-76.1314 -4.8344,-16.1358 -4.2112,-23.5003 4.8688,-57.5335 5.7271,-21.466 16.3583,-65.2526 23.625,-97.3035 8.4711,-37.3637 22.8053,-81.3132 39.9469,-122.4798 25.533,-61.319 33.2969,-88.1852 39.0941,-135.2811 2.9999,-24.3711 9.5767,-31.3952 33.0197,-35.2656 15.7772,-2.6047 16.7306,-3.705 16.0543,-18.5265 -0.3955,-8.6665 -2.1514,-25.094 -3.9021,-36.5055 -2.5694,-16.7482 -1.2311,-24.5743 6.9414,-40.5939 8.3007,-16.27073 9.6446,-24.43742 7.4602,-45.33677 l -2.6644,-25.49118 24.7938,-24.4858 c 24.3316,-24.02939 24.7938,-24.97295 24.7938,-50.61986 0,-22.7695 1.4391,-27.07702 11.1785,-33.45853 6.1482,-4.02846 23.5698,-8.44806 38.7145,-9.82134 24.6421,-2.23447 28.7591,-1.35653 39.1753,8.35397 14.6147,13.62451 34.8185,53.12538 44.8868,87.75911 7.614,26.19139 7.4117,67.78915 -0.6025,123.8667 -3.7423,26.1862 -0.8837,35.0601 23.0161,71.4482 11.3006,17.2056 20.5466,34.8412 20.5466,39.1904 0,5.5411 -8.1753,10.8884 -27.3188,17.8685 -22.7867,8.3084 -26.8675,11.383 -24.5982,18.5328 1.4963,4.7146 28.7483,63.2305 60.56,130.0353 l 57.8395,121.4634 -11.6363,20.8427 -11.6364,20.8427 30.5624,29.8195 c 16.8094,16.4008 30.5625,33.3294 30.5625,37.6193 0,4.2898 -5.086,13.1083 -11.3022,19.5966 -6.2162,6.4883 -15.0759,22.9307 -19.6883,36.5385 -6.4211,18.9443 -10.7638,25.092 -18.5333,26.237 -26.088,3.8446 -111.2744,-57.5972 -108.3408,-78.1422 0.8685,-6.0828 8.7637,-13.2707 21.7759,-19.8251 11.2273,-5.6553 21.0615,-12.1929 21.8537,-14.528 0.7923,-2.3351 -10.7674,-17.3682 -25.6881,-33.4069 -26.5834,-28.5751 -41.5034,-51.1607 -41.5538,-62.9032 -0.068,-15.7511 -10.9365,-41.7537 -23.3736,-55.9188 -13.5417,-15.4232 -14.5575,-15.7509 -48.5176,-15.6534 -60.8179,0.1747 -100.4626,28.0968 -100.4626,70.7567 0,15.6235 -3.3238,22.8813 -18.9887,41.4638 l -18.9888,22.5252 1.2005,70.5836 c 1.1352,66.7388 0.7032,70.8498 -7.9307,75.4705 -11.6598,6.2401 -17.7853,5.9609 -35.161,-1.6026 z m 190.5726,-416.7934 c 9.8083,-19.624 13.727,-34.9789 15.3395,-60.1058 2.0389,-31.7697 1.6171,-33.7484 -7.1944,-33.7484 -22.0581,0 -71.6093,104.6993 -56.6371,119.6715 1.782,1.7821 10.4577,2.6326 19.2792,1.8901 14.5679,-1.2261 17.2476,-3.7678 29.2128,-27.7074 z"
       style="fill:#ffffff" />
    <path
       transform="scale(0.8,0.8)"
       id="path3636"
       d="M 498.85322,978.63854 C 486.39426,964.84794 481.12771,952.8774 473.40701,920.80084 452.92066,835.68787 444.876,790.80867 431.92535,689.38489 424.56691,631.75681 416.43744,579.05963 413.85987,572.2801 c -7.33021,-19.27991 -5.54685,-42.16477 4.87824,-62.59963 12.34495,-24.19811 9.60918,-45.86705 -9.04144,-71.61349 -16.06463,-22.17656 -17.69739,-38.19708 -5.50885,-54.05213 8.22214,-10.69551 8.20424,-11.59845 -0.75629,-38.13201 -7.60681,-22.52502 -8.28915,-29.63473 -3.98614,-41.53449 7.63983,-21.12757 6.35449,-44.44957 -3.88087,-70.4169 -14.14134,-35.87685 -11.93466,-53.81453 14.18813,-115.33275 12.7934,-30.127975 26.00396,-57.709142 29.35681,-61.291482 5.22744,-5.585238 10.22292,-2.550563 35.05764,21.296953 28.32251,27.196679 46.05618,36.463449 59.73471,31.214509 3.74284,-1.43627 13.32635,-11.863071 21.29669,-23.170682 l 14.49152,-20.559289 29.74672,-0.01696 c 21.7214,-0.01225 33.75379,-2.460062 44.59931,-9.072581 10.98518,-6.697669 22.8561,-9.055624 45.58972,-9.055624 32.99331,0 41.62423,-4.420887 41.62423,-21.320565 0,-13.369076 12.61655,-13.819853 28.87413,-1.031642 14.98179,11.784678 15.65414,30.263481 2.39093,65.712574 -7.7573,20.733229 -12.43778,26.757309 -24.8039,31.924209 -8.38329,3.50276 -19.9009,6.37026 -25.59469,6.37223 -5.6938,0.002 -22.60034,5.79503 -37.5701,12.87347 -14.96976,7.07844 -37.64749,16.33147 -50.39497,20.56229 -12.74748,4.23082 -31.67852,14.96918 -42.06899,23.86304 -12.9126,11.05271 -24.95927,16.94507 -38.06269,18.61753 -10.54401,1.34579 -25.04667,5.41561 -32.22812,9.04405 -14.41161,7.28149 -14.2812,3.97036 -3.08552,78.3425 4.61573,30.66197 1.28183,68.8727 -9.00477,103.20633 -5.40438,18.03819 -5.02939,20.0569 6.93173,37.31681 6.95486,10.03586 14.5451,18.24702 16.86722,18.24702 2.3221,0 11.23918,-5.35225 19.81571,-11.89389 11.60646,-8.85268 25.09471,-13.25141 52.75127,-17.203 l 37.15757,-5.30911 5.54579,-21.73947 c 3.05019,-11.95671 6.81223,-23.00592 8.36011,-24.55379 1.54787,-1.54787 16.51494,-3.6423 33.26014,-4.65429 35.79035,-2.16297 43.51188,-7.55881 50.49341,-35.28497 l 5.10691,-20.28137 20.72844,14.26154 c 27.01048,18.58369 50.91099,39.68942 56.2571,49.67873 6.95934,13.00363 -9.84232,28.95069 -60.39704,57.32501 -27.36525,15.35901 -58.81387,37.75627 -77.00762,54.8437 -16.91393,15.88545 -38.00554,31.91307 -46.87024,35.617 -8.86471,3.70393 -36.55521,7.97952 -61.53444,9.50131 -34.33869,2.092 -46.05356,4.42628 -48.02735,9.56994 -1.43581,3.74166 0.90951,24.34554 5.21181,45.78641 21.0252,104.78068 21.51428,109.43269 14.16332,134.71911 -10.26907,35.32436 -8.7688,44.5309 14.09047,86.46677 l 20.95239,38.43767 -21.66804,20.17824 -21.66803,20.17819 10.75455,11.44769 c 9.04737,9.6305 10.60027,15.55857 9.78264,37.34446 -1.37332,36.59217 -4.98158,50.2513 -14.64011,55.42041 -14.12184,7.55777 -20.91418,5.20811 -37.2658,-12.89114 z"
       style="fill:#ffffff" />
  </g>
</svg>
